<svg width="90" height="48" viewBox="0 0 90 48" fill="none" xmlns="http://www.w3.org/2000/svg">
<path d="M0.0228271 25.425L16.9548 18.036L0.0228271 10.278V0L29.0228 13.698V22.221L0.0228271 36V25.425Z" fill="#A100FF"/>
<path d="M3.05833 48C1.3937 48 0.0228271 47.1807 0.0228271 45.3494V45.253C0.0228271 43.0362 1.98122 42.2651 4.38024 42.2651H5.50633V41.8313C5.50633 40.9157 5.11464 40.3855 4.13544 40.3855C3.25417 40.3855 2.81353 40.8675 2.76457 41.5422H0.316585C0.512424 39.5181 2.12809 38.5542 4.28232 38.5542C6.48553 38.5542 8.1012 39.4699 8.1012 41.735V47.8072H5.60423V46.747C5.11464 47.4217 4.28232 48 3.05833 48ZM5.50633 44.8193V43.9518H4.47816C3.20521 43.9518 2.56873 44.2892 2.56873 45.1084V45.2048C2.56873 45.8314 2.96041 46.2651 3.84169 46.2651C4.72296 46.2169 5.50633 45.7349 5.50633 44.8193ZM13.9274 48C11.3815 48 9.52102 46.4579 9.52102 43.3735V43.2289C9.52102 40.1446 11.4794 38.506 13.9274 38.506C16.0327 38.506 17.7462 39.5663 17.9421 41.9277H15.4941C15.3472 41.0603 14.8576 40.482 13.9763 40.482C12.8992 40.482 12.1159 41.3494 12.1159 43.1325V43.4217C12.1159 45.253 12.8013 46.0723 13.9763 46.0723C14.8576 46.0723 15.4941 45.4458 15.641 44.4337H17.9911C17.8442 46.5542 16.4243 48 13.9274 48ZM23.5235 48C20.9776 48 19.1171 46.4579 19.1171 43.3735V43.2289C19.1171 40.1446 21.0755 38.506 23.5235 38.506C25.6288 38.506 27.3424 39.5663 27.5382 41.9277H25.0902C24.9433 41.0603 24.4537 40.482 23.5725 40.482C22.4953 40.482 21.712 41.3494 21.712 43.1325V43.4217C21.712 45.253 22.3974 46.0723 23.5725 46.0723C24.4537 46.0723 25.0902 45.4458 25.2371 44.4337H27.5871C27.4403 46.5542 26.0204 48 23.5235 48ZM33.1686 48C30.5247 48 28.7132 46.4579 28.7132 43.4217V43.2289C28.7132 40.1928 30.6226 38.506 33.1196 38.506C35.4207 38.506 37.3301 39.759 37.3301 42.7952V43.9036H31.3081C31.406 45.5422 32.1404 46.1687 33.2175 46.1687C34.1967 46.1687 34.7353 45.6386 34.9311 45.0121H37.3301C37.0364 46.6988 35.5676 48 33.1686 48ZM31.357 42.2169H34.7842C34.7353 40.8675 34.0988 40.2892 33.0707 40.2892C32.2873 40.3373 31.5529 40.7711 31.357 42.2169ZM38.8968 38.747H41.4917V40.0964C41.9323 39.2289 42.8626 38.5542 44.2824 38.5542C45.9471 38.5542 47.0731 39.5663 47.0731 41.735V47.8072H44.4782V42.1205C44.4782 41.0603 44.0376 40.5783 43.1074 40.5783C42.2261 40.5783 41.4917 41.1085 41.4917 42.2651V47.8072H38.8968V38.747ZM51.8222 36V38.747H53.5848V40.6265H51.8222V44.9157C51.8222 45.5904 52.116 45.9277 52.7527 45.9277C53.1442 45.9277 53.389 45.8795 53.6337 45.7832V47.7591C53.34 47.8554 52.8016 47.9518 52.1649 47.9518C50.1576 47.9518 49.2273 47.0361 49.2273 45.2048V40.6265H48.1502V38.747H49.2273V37.0603L51.8222 36ZM63.2788 47.8072H60.7331V46.4579C60.292 47.3253 59.411 48 58.04 48C56.3752 48 55.1516 46.9879 55.1516 44.8675V38.747H57.7463V44.5302C57.7463 45.5904 58.1868 46.0723 59.0684 46.0723C59.9494 46.0723 60.6841 45.494 60.6841 44.3855V38.747H63.2788V47.8072ZM65.1883 38.747H67.783V40.4338C68.3214 39.2289 69.203 38.6506 70.574 38.6506V41.1566C68.8114 41.1566 67.783 41.6868 67.783 43.1807V47.8554H65.1883V38.747ZM75.8124 48C73.1687 48 71.3572 46.4579 71.3572 43.4217V43.2289C71.3572 40.1928 73.2666 38.506 75.7634 38.506C78.0644 38.506 79.9739 39.759 79.9739 42.7952V43.9036H74.0008C74.0987 45.5422 74.8334 46.1687 75.9103 46.1687C76.8897 46.1687 77.4281 45.6386 77.6239 45.0121H80.0228C79.6313 46.6988 78.2113 48 75.8124 48ZM73.9519 42.2169H77.4281C77.3792 40.8675 76.7429 40.2892 75.7145 40.2892C74.9313 40.3373 74.1966 40.7711 73.9519 42.2169Z" fill="white"/>
</svg>
