<svg width="1918" height="427" viewBox="0 0 1918 427" fill="none" xmlns="http://www.w3.org/2000/svg">
<g clip-path="url(#clip0_1_795)">
<mask id="mask0_1_795" style="mask-type:luminance" maskUnits="userSpaceOnUse" x="0" y="0" width="1918" height="427">
<path d="M1917.5 0.0427246H0.5V426.043H1917.5V0.0427246Z" fill="white"/>
</mask>
<g mask="url(#mask0_1_795)">
<path d="M3016.91 -638.957H-1701.86V1065.04H3016.91V-638.957Z" fill="black"/>
<mask id="mask1_1_795" style="mask-type:alpha" maskUnits="userSpaceOnUse" x="1736" y="150" width="181" height="176">
<path d="M1916.54 150.79H1736.49V325.972H1916.54V150.79Z" fill="#161616"/>
</mask>
<g mask="url(#mask1_1_795)">
<path d="M1830.64 290.935H1901.01V272.541H1854.15V246.555H1889.77V229.329H1854.15V204.949H1898.67V186.554H1830.64V290.935Z" fill="white"/>
<path d="M1760.85 229.475V202.613H1774.87C1780.42 202.613 1784.48 203.642 1787.06 205.697C1789.64 207.752 1790.93 210.98 1790.93 215.383V215.971C1790.93 220.67 1789.71 224.094 1787.28 226.247C1784.84 228.4 1780.76 229.475 1775.01 229.475H1760.85ZM1760.85 274.585V244.657H1775.89C1782.31 244.657 1786.94 245.875 1789.76 248.307C1792.58 250.741 1793.99 254.391 1793.99 259.256V259.84C1793.99 264.61 1792.63 268.26 1789.91 270.789C1787.18 273.321 1782.9 274.585 1777.06 274.585H1760.85ZM1737.79 290.935H1780.71C1792.87 290.935 1802.02 288.479 1808.15 283.563C1814.28 278.649 1817.35 271.373 1817.35 261.738V261.154C1817.35 254.146 1815.57 248.649 1812.02 244.657C1808.47 240.668 1803.29 237.992 1796.47 236.628C1802.31 234.975 1806.6 232.225 1809.32 228.38C1812.05 224.537 1813.41 219.839 1813.41 214.292V213.708C1813.41 204.755 1810.51 197.991 1804.72 193.416C1798.93 188.843 1790.29 186.554 1778.81 186.554H1737.79V290.935Z" fill="white"/>
</g>
<mask id="mask2_1_795" style="mask-type:alpha" maskUnits="userSpaceOnUse" x="1144" y="150" width="531" height="176">
<path d="M1674.93 150.79H1144.5V325.972H1674.93V150.79Z" fill="#161616"/>
</mask>
<g mask="url(#mask2_1_795)">
<path d="M1572.87 290.935H1606.88C1616.03 290.935 1624.04 289.694 1630.9 287.212C1637.76 284.731 1643.48 281.204 1648.05 276.628C1652.63 272.055 1656.06 266.555 1658.34 260.132C1660.63 253.708 1661.78 246.605 1661.78 238.818V237.65C1661.78 229.865 1660.63 222.809 1658.34 216.482C1656.06 210.157 1652.67 204.755 1648.2 200.277C1643.62 195.898 1637.91 192.517 1631.04 190.131C1624.18 187.748 1616.18 186.554 1607.03 186.554H1572.87V290.935ZM1596.52 272.541V204.949H1605.86C1616.86 204.949 1624.81 207.772 1629.73 213.416C1634.64 219.062 1637.1 227.237 1637.1 237.942V239.11C1637.1 250.011 1634.6 258.307 1629.58 264.001C1624.57 269.694 1616.76 272.541 1606.15 272.541H1596.52Z" fill="white"/>
<path d="M1494.47 290.935H1560.6V272.541H1518.12V186.554H1494.47V290.935Z" fill="white"/>
<path d="M1464.09 281.665C1471.68 274.415 1475.47 263.636 1475.47 249.329V186.554H1451.68V247.869C1451.68 257.408 1450.07 264.099 1446.86 267.942C1443.65 271.788 1438.54 273.709 1431.53 273.709C1424.33 273.709 1419.29 271.738 1416.42 267.796C1413.55 263.855 1412.12 257.504 1412.12 248.745V186.554H1388.32V250.205C1388.32 264.123 1392.04 274.658 1399.49 281.811C1406.93 288.964 1417.56 292.541 1431.39 292.541C1445.59 292.541 1456.5 288.917 1464.09 281.665Z" fill="white"/>
<path d="M1343.79 288.526C1350.4 285.851 1356.05 282.128 1360.72 277.358C1365.39 272.591 1369.02 266.92 1371.6 260.351C1374.17 253.781 1375.47 246.605 1375.47 238.818V237.65C1375.47 229.766 1374.13 222.613 1371.45 216.19C1368.77 209.766 1365.1 204.219 1360.43 199.547C1355.66 194.974 1349.99 191.422 1343.42 188.89C1336.85 186.361 1329.63 185.094 1321.74 185.094C1313.96 185.094 1306.8 186.408 1300.28 189.036C1293.76 191.664 1288.12 195.314 1283.35 199.985C1278.48 204.657 1274.71 210.254 1272.03 216.774C1269.36 223.296 1268.02 230.449 1268.02 238.234V239.402C1268.02 246.993 1269.28 254.05 1271.81 260.57C1274.34 267.092 1277.95 272.687 1282.62 277.358C1287.19 282.128 1292.79 285.851 1299.41 288.526C1306.02 291.201 1313.42 292.541 1321.6 292.541C1329.77 292.541 1337.17 291.201 1343.79 288.526ZM1310.21 271.3C1306.61 269.694 1303.54 267.384 1301.01 264.365C1298.38 261.446 1296.34 257.869 1294.88 253.635C1293.42 249.402 1292.69 244.61 1292.69 239.256V238.088C1292.69 232.832 1293.35 228.088 1294.66 223.854C1295.98 219.62 1297.9 215.996 1300.43 212.978C1302.96 210.058 1306 207.795 1309.55 206.19C1313.1 204.584 1317.17 203.781 1321.74 203.781C1326.32 203.781 1330.4 204.609 1334.01 206.263C1337.61 207.918 1340.67 210.254 1343.2 213.27C1345.63 216.288 1347.51 219.889 1348.82 224.073C1350.14 228.259 1350.79 232.882 1350.79 237.942V239.11C1350.79 244.365 1350.11 249.135 1348.75 253.416C1347.39 257.7 1345.49 261.3 1343.06 264.219C1340.52 267.238 1337.48 269.573 1333.93 271.227C1330.38 272.883 1326.41 273.709 1322.03 273.709C1317.75 273.709 1313.81 272.906 1310.21 271.3Z" fill="white"/>
<path d="M1232.39 290.059C1237.84 288.406 1242.61 285.924 1246.7 282.614C1250.79 279.402 1254.09 275.34 1256.62 270.424C1259.15 265.51 1260.76 259.84 1261.44 253.416H1238.23C1237.26 260.132 1234.65 265.145 1230.42 268.453C1226.19 271.763 1220.81 273.417 1214.29 273.417C1205.63 273.417 1198.93 270.449 1194.22 264.511C1189.49 258.576 1187.14 250.157 1187.14 239.256V238.088C1187.14 227.189 1189.57 218.721 1194.43 212.686C1199.3 206.653 1205.87 203.635 1214.14 203.635C1220.76 203.635 1225.84 205.266 1229.4 208.525C1232.95 211.787 1235.16 216.58 1236.04 222.905H1260.27C1259.69 216.482 1258.11 210.887 1255.53 206.117C1252.95 201.349 1249.66 197.407 1245.68 194.292C1241.59 191.178 1236.84 188.843 1231.44 187.284C1226.04 185.728 1220.22 184.948 1214 184.948C1206.6 184.948 1199.74 186.239 1193.41 188.817C1187.09 191.397 1181.64 195.022 1177.06 199.693C1172.39 204.365 1168.74 209.985 1166.11 216.555C1163.49 223.124 1162.17 230.35 1162.17 238.234V239.402C1162.17 247.481 1163.29 254.78 1165.53 261.3C1167.77 267.822 1171.12 273.369 1175.6 277.942C1179.98 282.614 1185.43 286.216 1191.95 288.745C1198.47 291.274 1206.01 292.541 1214.58 292.541C1221 292.541 1226.94 291.712 1232.39 290.059Z" fill="white"/>
</g>
<mask id="mask3_1_795" style="mask-type:alpha" maskUnits="userSpaceOnUse" x="404" y="150" width="711" height="176">
<path d="M1114.72 150.79H404.246V325.972H1114.72V150.79Z" fill="#161616"/>
</mask>
<g mask="url(#mask3_1_795)">
<path d="M1085.64 289.911C1090.6 288.156 1094.78 285.768 1098.19 282.746C1101.6 279.822 1104.23 276.339 1106.08 272.292C1107.92 268.249 1108.85 263.887 1108.85 259.206C1108.85 253.846 1108.05 249.315 1106.44 245.611C1104.83 241.907 1102.43 238.837 1099.21 236.4C1096 234.06 1092.01 232.185 1087.24 230.77C1082.47 229.358 1076.93 228.262 1070.6 227.482C1066.61 226.898 1063.35 226.213 1060.82 225.433C1058.29 224.653 1056.34 223.726 1054.98 222.654C1053.52 221.678 1052.52 220.485 1051.99 219.071C1051.45 217.657 1051.18 216.023 1051.18 214.169C1051.18 210.66 1052.47 207.808 1055.05 205.613C1057.63 203.418 1061.55 202.321 1066.81 202.321C1071.86 202.321 1075.86 203.466 1078.78 205.752C1081.7 208.04 1083.5 211.518 1084.18 216.19H1105.93C1104.96 205.825 1101.14 198.051 1094.47 192.868C1087.8 187.686 1078.58 185.094 1066.81 185.094C1061.06 185.094 1055.86 185.872 1051.18 187.428C1046.51 188.984 1042.52 191.124 1039.21 193.848C1035.9 196.668 1033.35 199.974 1031.55 203.765C1029.75 207.558 1028.85 211.692 1028.85 216.163C1028.85 221.22 1029.55 225.546 1030.97 229.144C1032.38 232.743 1034.64 235.757 1037.75 238.189C1040.77 240.715 1044.64 242.735 1049.36 244.242C1054.08 245.75 1059.8 246.941 1066.51 247.814C1070.31 248.4 1073.47 249.06 1076 249.79C1078.53 250.522 1080.58 251.375 1082.13 252.349C1083.59 253.421 1084.64 254.689 1085.27 256.151C1085.9 257.616 1086.22 259.37 1086.22 261.419C1086.22 265.515 1084.66 268.856 1081.55 271.44C1078.43 274.024 1074.25 275.314 1069 275.314C1065.1 275.314 1061.91 274.853 1059.43 273.928C1056.95 273.004 1054.93 271.763 1053.37 270.205C1051.82 268.745 1050.7 266.97 1050.02 264.876C1049.33 262.785 1048.85 260.57 1048.56 258.234H1025.93C1026.22 263.489 1027.29 268.211 1029.14 272.395C1030.99 276.581 1033.67 280.182 1037.17 283.198C1040.67 286.216 1045.05 288.526 1050.31 290.132C1055.56 291.738 1061.79 292.541 1069 292.541C1075.13 292.541 1080.67 291.662 1085.64 289.911Z" fill="white"/>
<path d="M996.278 289.911C1001.24 288.156 1005.43 285.768 1008.83 282.746C1012.24 279.822 1014.87 276.339 1016.72 272.292C1018.56 268.249 1019.49 263.887 1019.49 259.206C1019.49 253.846 1018.69 249.315 1017.08 245.611C1015.48 241.907 1013.07 238.837 1009.85 236.4C1006.64 234.06 1002.65 232.185 997.884 230.77C993.114 229.358 987.566 228.262 981.241 227.482C977.25 226.898 973.989 226.213 971.46 225.433C968.928 224.653 966.982 223.726 965.621 222.654C964.161 221.678 963.162 220.485 962.628 219.071C962.091 217.657 961.825 216.023 961.825 214.169C961.825 210.66 963.113 207.808 965.694 205.613C968.271 203.418 972.19 202.321 977.446 202.321C982.505 202.321 986.497 203.466 989.416 205.752C992.336 208.04 994.135 211.518 994.818 216.19H1016.57C1015.6 205.825 1011.78 198.051 1005.11 192.868C998.442 187.686 989.221 185.094 977.446 185.094C971.702 185.094 966.496 185.872 961.825 187.428C957.153 188.984 953.162 191.124 949.854 193.848C946.544 196.668 943.989 199.974 942.19 203.765C940.388 207.558 939.489 211.692 939.489 216.163C939.489 221.22 940.193 225.546 941.606 229.144C943.016 232.743 945.278 235.757 948.394 238.189C951.41 240.715 955.279 242.735 960 244.242C964.719 245.75 970.438 246.941 977.154 247.814C980.949 248.4 984.111 249.06 986.643 249.79C989.172 250.522 991.216 251.375 992.774 252.349C994.234 253.421 995.279 254.689 995.913 256.151C996.544 257.616 996.862 259.37 996.862 261.419C996.862 265.515 995.303 268.856 992.19 271.44C989.075 274.024 984.891 275.314 979.635 275.314C975.741 275.314 972.555 274.853 970.073 273.928C967.591 273.004 965.571 271.763 964.015 270.205C962.456 268.745 961.337 266.97 960.657 264.876C959.975 262.785 959.489 260.57 959.197 258.234H936.569C936.861 263.489 937.93 268.211 939.781 272.395C941.629 276.581 944.306 280.182 947.81 283.198C951.314 286.216 955.693 288.526 960.949 290.132C966.205 291.738 972.432 292.541 979.635 292.541C985.767 292.541 991.314 291.662 996.278 289.911Z" fill="white"/>
<path d="M859.995 290.935H930.361V272.541H883.499V246.555H919.12V229.329H883.499V204.949H928.025V186.554H859.995V290.935Z" fill="white"/>
<path d="M752.319 290.935H773.341V216.628L816.845 290.935H840.495V186.554H819.473V255.314L779.765 186.554H752.319V290.935Z" fill="white"/>
<path d="M708.808 290.935H732.603V186.554H708.808V290.935Z" fill="white"/>
<path d="M671.282 289.911C676.245 288.156 680.429 285.768 683.837 282.746C687.242 279.822 689.869 276.339 691.72 272.292C693.568 268.249 694.494 263.887 694.494 259.206C694.494 253.846 693.691 249.315 692.085 245.611C690.479 241.907 688.07 238.837 684.858 236.4C681.647 234.06 677.655 232.185 672.888 230.77C668.117 229.358 662.57 228.262 656.245 227.482C652.253 226.898 648.993 226.213 646.464 225.433C643.932 224.653 641.986 223.726 640.624 222.654C639.165 221.678 638.166 220.485 637.632 219.071C637.095 217.657 636.829 216.023 636.829 214.169C636.829 210.66 638.117 207.808 640.697 205.613C643.275 203.418 647.194 202.321 652.449 202.321C657.509 202.321 661.501 203.466 664.42 205.752C667.34 208.04 669.139 211.518 669.822 216.19H691.574C690.599 205.825 686.779 198.051 680.114 192.868C673.446 187.686 664.224 185.094 652.449 185.094C646.706 185.094 641.5 185.872 636.829 187.428C632.157 188.984 628.166 191.124 624.858 193.848C621.548 196.668 618.993 199.974 617.193 203.765C615.392 207.558 614.493 211.692 614.493 216.163C614.493 221.22 615.197 225.546 616.61 229.144C618.02 232.743 620.282 235.757 623.398 238.189C626.414 240.715 630.282 242.735 635.004 244.242C639.723 245.75 645.442 246.941 652.157 247.814C655.953 248.4 659.115 249.06 661.646 249.79C664.176 250.522 666.22 251.375 667.778 252.349C669.238 253.421 670.283 254.689 670.917 256.151C671.548 257.616 671.866 259.37 671.866 261.419C671.866 265.515 670.307 268.856 667.194 271.44C664.078 274.024 659.895 275.314 654.639 275.314C650.745 275.314 647.559 274.853 645.077 273.928C642.595 273.004 640.575 271.763 639.019 270.205C637.46 268.745 636.341 266.97 635.661 264.876C634.978 262.785 634.493 260.57 634.201 258.234H611.573C611.865 263.489 612.934 268.211 614.785 272.395C616.633 276.581 619.31 280.182 622.814 283.198C626.318 286.216 630.697 288.526 635.953 290.132C641.208 291.738 647.436 292.541 654.639 292.541C660.771 292.541 666.318 291.662 671.282 289.911Z" fill="white"/>
<path d="M588.5 281.665C596.091 274.415 599.887 263.636 599.887 249.329V186.554H576.091V247.869C576.091 257.408 574.485 264.099 571.273 267.942C568.062 271.788 562.952 273.709 555.945 273.709C548.741 273.709 543.705 271.738 540.835 267.796C537.963 263.855 536.528 257.504 536.528 248.745V186.554H512.732V250.205C512.732 264.123 516.455 274.658 523.9 281.811C531.346 288.964 541.977 292.541 555.799 292.541C570.007 292.541 580.908 288.917 588.5 281.665Z" fill="white"/>
<path d="M443.082 229.475V202.613H457.097C462.644 202.613 466.707 203.642 469.287 205.697C471.865 207.752 473.155 210.98 473.155 215.383V215.971C473.155 220.67 471.938 224.094 469.506 226.247C467.071 228.4 462.984 229.475 457.243 229.475H443.082ZM443.082 274.585V244.657H458.119C464.542 244.657 469.164 245.875 471.988 248.307C474.809 250.741 476.221 254.391 476.221 259.256V259.84C476.221 264.61 474.857 268.26 472.134 270.789C469.407 273.321 465.126 274.585 459.287 274.585H443.082ZM420.016 290.935H462.936C475.101 290.935 484.25 288.479 490.382 283.563C496.513 278.649 499.579 271.373 499.579 261.738V261.154C499.579 254.146 497.802 248.649 494.251 244.657C490.697 240.668 485.514 237.992 478.703 236.628C484.542 234.975 488.824 232.225 491.55 228.38C494.274 224.537 495.637 219.839 495.637 214.292V213.708C495.637 204.755 492.741 197.991 486.951 193.416C481.159 188.843 472.522 186.554 461.039 186.554H420.016V290.935Z" fill="white"/>
</g>
<mask id="mask4_1_795" style="mask-type:alpha" maskUnits="userSpaceOnUse" x="1255" y="30" width="410" height="176">
<path d="M1664.16 30.167H1255.4V205.349H1664.16V30.167Z" fill="#161616"/>
</mask>
<g mask="url(#mask4_1_795)">
<path d="M1599.34 100.579V70.6519H1612.62C1618.37 70.6519 1622.77 71.6994 1625.84 73.7907C1628.9 75.8844 1630.44 79.607 1630.44 84.9587V85.5426C1630.44 90.5062 1628.95 94.2544 1625.98 96.7836C1623.01 99.3153 1618.56 100.579 1612.62 100.579H1599.34ZM1575.84 156.93H1599.34V116.638H1609.56L1634.52 156.93H1659.63L1632.04 112.55C1635.06 111.674 1637.88 110.459 1640.51 108.901C1643.14 107.345 1645.42 105.447 1647.37 103.207C1649.32 100.97 1650.82 98.342 1651.9 95.3237C1652.96 92.3079 1653.5 88.8042 1653.5 84.8127V84.2287C1653.5 78.8771 1652.55 74.2055 1650.65 70.214C1648.76 66.2249 1646.06 62.9146 1642.55 60.2869C1639.05 57.6591 1634.81 55.7138 1629.85 54.4474C1624.89 53.1834 1619.34 52.5496 1613.21 52.5496H1575.84V156.93Z" fill="white"/>
<path d="M1545.46 147.66C1553.05 140.411 1556.84 129.631 1556.84 115.324V52.5496H1533.05V113.864C1533.05 123.403 1531.44 130.094 1528.23 133.937C1525.02 137.783 1519.91 139.704 1512.9 139.704C1505.7 139.704 1500.66 137.733 1497.79 133.791C1494.92 129.85 1493.48 123.499 1493.48 114.74V52.5496H1469.69V116.2C1469.69 130.118 1473.41 140.653 1480.86 147.806C1488.3 154.959 1498.93 158.536 1512.76 158.536C1526.96 158.536 1537.87 154.912 1545.46 147.66Z" fill="white"/>
<path d="M1425.16 154.521C1431.77 151.846 1437.42 148.123 1442.09 143.353C1446.76 138.586 1450.39 132.915 1452.97 126.346C1455.54 119.776 1456.83 112.6 1456.83 104.813V103.645C1456.83 95.7616 1455.5 88.6082 1452.82 82.1848C1450.14 75.7614 1446.47 70.2139 1441.8 65.5423C1437.03 60.9693 1431.36 57.4169 1424.79 54.8853C1418.22 52.356 1411 51.0896 1403.11 51.0896C1395.32 51.0896 1388.17 52.4035 1381.65 55.0312C1375.13 57.659 1369.48 61.3087 1364.72 65.9803C1359.85 70.6518 1356.08 76.2492 1353.4 82.7688C1350.73 89.2907 1349.39 96.4441 1349.39 104.229V105.397C1349.39 112.988 1350.65 120.045 1353.18 126.565C1355.71 133.087 1359.32 138.682 1363.99 143.353C1368.56 148.123 1374.16 151.846 1380.78 154.521C1387.39 157.197 1394.79 158.536 1402.97 158.536C1411.14 158.536 1418.54 157.197 1425.16 154.521ZM1391.58 137.295C1387.98 135.689 1384.91 133.379 1382.38 130.36C1379.75 127.441 1377.71 123.864 1376.25 119.63C1374.79 115.397 1374.06 110.605 1374.06 105.251V104.083C1374.06 98.8273 1374.72 94.0827 1376.03 89.8491C1377.35 85.6155 1379.27 81.9914 1381.8 78.9731C1384.33 76.0534 1387.37 73.7906 1390.92 72.1847C1394.47 70.5789 1398.54 69.7759 1403.11 69.7759C1407.68 69.7759 1411.77 70.6044 1415.37 72.2577C1418.97 73.9134 1422.04 76.2492 1424.57 79.2651C1427 82.2834 1428.88 85.8844 1430.19 90.0681C1431.51 94.2543 1432.16 98.8772 1432.16 103.937V105.105C1432.16 110.36 1431.48 115.13 1430.12 119.411C1428.76 123.695 1426.86 127.295 1424.43 130.215C1421.89 133.233 1418.85 135.569 1415.3 137.222C1411.75 138.878 1407.78 139.704 1403.4 139.704C1399.12 139.704 1395.18 138.901 1391.58 137.295Z" fill="white"/>
<path d="M1296.68 156.93H1320.48V111.966L1353.03 52.5496H1330.11L1309.38 92.55L1288.21 52.5496H1262.23L1296.68 111.966V156.93Z" fill="white"/>
</g>
<mask id="mask5_1_795" style="mask-type:alpha" maskUnits="userSpaceOnUse" x="769" y="30" width="443" height="176">
<path d="M1211.9 30.167H769.068V205.349H1211.9V30.167Z" fill="#161616"/>
</mask>
<g mask="url(#mask5_1_795)">
<path d="M1150.83 156.93H1174.63V70.9439H1202.8V52.5496H1122.66V70.9439H1150.83V156.93Z" fill="white"/>
<path d="M1079 71.8198L1092.72 116.93H1065.13L1079 71.8198ZM1030.68 156.93H1052.87L1060.02 133.718H1097.83L1104.98 156.93H1129.66L1095.79 52.5496H1064.98L1030.68 156.93Z" fill="white"/>
<path d="M930.668 156.93H954.318V113.864H996.216V156.93H1019.87V52.5496H996.216V95.1777H954.318V52.5496H930.668V156.93Z" fill="white"/>
<path d="M808.754 156.93H831.528L850.652 84.8127L869.484 156.93H893.572L918.974 52.5496H897.076L880.142 125.105L861.601 52.5496H841.455L823.645 124.667L807.294 52.5496H783.352L808.754 156.93Z" fill="white"/>
</g>
<mask id="mask6_1_795" style="mask-type:alpha" maskUnits="userSpaceOnUse" x="10" y="30" width="717" height="176">
<path d="M726.155 30.167H10.8252V205.349H726.155V30.167Z" fill="#161616"/>
</mask>
<g mask="url(#mask6_1_795)">
<path d="M661.598 156.93H685.394V70.9437H713.569V52.5493H633.422V70.9437H661.598V156.93Z" fill="white"/>
<path d="M533.852 156.93H554.874V82.6226L598.378 156.93H622.028V52.5493H601.006V121.309L561.298 52.5493H533.852V156.93Z" fill="white"/>
<path d="M450.34 156.93H520.706V138.536H473.844V112.55H509.465V95.3235H473.844V70.9437H518.37V52.5493H450.34V156.93Z" fill="white"/>
<path d="M377.777 156.93H404.931L439.676 52.5493H417.486L392.668 132.696L367.85 52.5493H342.887L377.777 156.93Z" fill="white"/>
<path d="M243.309 156.93H264.331V82.6226L307.835 156.93H331.485V52.5493H310.463V121.309L270.754 52.5493H243.309V156.93Z" fill="white"/>
<path d="M200.535 156.93H224.331V52.5493H200.535V156.93Z" fill="white"/>
<path d="M115.702 156.93H186.067V138.536H139.206V112.55H174.826V95.3235H139.206V70.9437H183.732V52.5493H115.702V156.93Z" fill="white"/>
<path d="M44.4528 100.579V70.6517H57.7376C63.4785 70.6517 67.8837 71.6992 70.9494 73.7904C74.0151 75.8841 75.548 79.6068 75.548 84.9584V85.5424C75.548 90.5059 74.0626 94.2541 71.0954 96.7834C68.1258 99.315 63.6731 100.579 57.7376 100.579H44.4528ZM20.9489 156.93H44.4528V116.638H54.6718L79.6356 156.93H104.745L77.1538 112.55C80.1697 111.674 82.9933 110.459 85.6211 108.9C88.2488 107.344 90.5347 105.446 92.4825 103.207C94.4277 100.97 95.9363 98.3418 97.008 95.3235C98.0774 92.3076 98.6139 88.804 98.6139 84.8124V84.2285C98.6139 78.8768 97.665 74.2053 95.7672 70.2137C93.8693 66.2246 91.1686 62.9144 87.6649 60.2866C84.1612 57.6589 79.9276 55.7136 74.964 54.4471C70.0005 53.1831 64.453 52.5493 58.3215 52.5493H20.9489V156.93Z" fill="white"/>
</g>
<mask id="mask7_1_795" style="mask-type:alpha" maskUnits="userSpaceOnUse" x="528" y="196" width="868" height="213">
<path d="M1395.48 196.585H528.416V408.927H1395.48V196.585Z" fill="#161616"/>
</mask>
<g mask="url(#mask7_1_795)">
<path d="M1131.79 372.399C1132.04 370.721 1132.64 369.405 1133.61 368.456C1134.57 367.506 1135.81 367.031 1137.32 367.031C1138.89 367.031 1140.12 367.459 1141.02 368.311C1141.91 369.165 1142.43 370.527 1142.57 372.399H1131.79ZM1144.3 384.053C1146.04 382.848 1147.08 381.096 1147.44 378.799H1142.61C1142.42 379.857 1141.92 380.68 1141.12 381.266C1140.32 381.851 1139.17 382.143 1137.65 382.143C1135.78 382.143 1134.34 381.59 1133.34 380.481C1132.33 379.372 1131.79 377.78 1131.71 375.702H1147.52V374.261C1147.52 372.341 1147.24 370.694 1146.68 369.323C1146.11 367.951 1145.36 366.826 1144.43 365.949C1143.49 365.071 1142.41 364.427 1141.19 364.016C1139.96 363.604 1138.67 363.398 1137.32 363.398C1135.78 363.398 1134.36 363.666 1133.05 364.203C1131.74 364.74 1130.61 365.498 1129.64 366.474C1128.68 367.451 1127.93 368.621 1127.39 369.983C1126.86 371.346 1126.59 372.868 1126.59 374.546V374.876C1126.59 376.584 1126.86 378.111 1127.39 379.459C1127.93 380.808 1128.69 381.957 1129.67 382.907C1130.64 383.857 1131.8 384.586 1133.13 385.095C1134.47 385.604 1135.93 385.859 1137.53 385.859C1140.31 385.859 1142.57 385.257 1144.3 384.053Z" fill="white"/>
<path d="M1109.68 380.285C1108.98 379.983 1108.37 379.557 1107.86 379.005C1107.35 378.455 1106.96 377.774 1106.67 376.961C1106.38 376.15 1106.23 375.248 1106.23 374.257V373.926C1106.23 371.945 1106.74 370.349 1107.76 369.137C1108.78 367.926 1110.22 367.32 1112.1 367.32C1113.91 367.32 1115.34 367.892 1116.37 369.034C1117.4 370.177 1117.92 371.779 1117.92 373.844V374.133C1117.92 376.197 1117.35 377.815 1116.23 378.984C1115.1 380.155 1113.67 380.739 1111.93 380.739C1111.13 380.739 1110.38 380.589 1109.68 380.285ZM1119.76 391C1121.72 389.416 1122.72 387.028 1122.75 383.836V363.852H1117.75V367.155C1117.12 366.082 1116.25 365.188 1115.15 364.471C1114.05 363.756 1112.61 363.398 1110.82 363.398C1109.41 363.398 1108.12 363.666 1106.94 364.203C1105.75 364.74 1104.73 365.483 1103.86 366.432C1102.99 367.382 1102.32 368.504 1101.84 369.798C1101.35 371.092 1101.11 372.496 1101.11 374.009V374.298C1101.11 375.867 1101.36 377.286 1101.86 378.551C1102.35 379.818 1103.03 380.898 1103.88 381.792C1104.73 382.687 1105.74 383.376 1106.91 383.857C1108.08 384.339 1109.34 384.579 1110.69 384.579C1111.49 384.579 1112.25 384.47 1112.96 384.249C1113.68 384.029 1114.35 383.733 1114.97 383.361C1115.59 382.989 1116.13 382.563 1116.6 382.081C1117.06 381.6 1117.45 381.098 1117.75 380.574V383.753C1117.75 385.707 1117.24 387.166 1116.21 388.13C1115.17 389.093 1113.68 389.575 1111.73 389.575C1110.07 389.575 1108.83 389.279 1107.99 388.687C1107.15 388.095 1106.62 387.263 1106.4 386.189H1101.36C1101.5 387.235 1101.8 388.192 1102.27 389.059C1102.74 389.926 1103.39 390.683 1104.23 391.33C1105.07 391.976 1106.11 392.479 1107.35 392.837C1108.59 393.194 1110.06 393.374 1111.77 393.374C1115.12 393.374 1117.79 392.582 1119.76 391Z" fill="white"/>
<path d="M1078.12 385.446H1083.11V372.7C1083.11 370.989 1083.61 369.699 1084.6 368.83C1085.59 367.962 1086.79 367.527 1088.19 367.527C1089.68 367.527 1090.76 367.907 1091.45 368.665C1092.14 369.423 1092.48 370.629 1092.48 372.285V385.446H1097.48V371.862C1097.48 370.376 1097.3 369.096 1096.94 368.022C1096.59 366.949 1096.08 366.076 1095.42 365.4C1094.76 364.726 1093.97 364.223 1093.06 363.893C1092.15 363.563 1091.16 363.398 1090.09 363.398C1088.3 363.398 1086.82 363.784 1085.65 364.554C1084.48 365.325 1083.63 366.233 1083.11 367.279V363.852H1078.12V385.446Z" fill="white"/>
<path d="M1060.05 381.441C1059.51 380.891 1059.25 380.161 1059.25 379.253C1059.25 377.932 1059.81 377.017 1060.94 376.507C1062.07 375.998 1063.58 375.743 1065.48 375.743H1068.04V377.89C1068.04 379.294 1067.54 380.375 1066.53 381.131C1065.53 381.889 1064.26 382.267 1062.71 382.267C1061.48 382.267 1060.59 381.993 1060.05 381.441ZM1065.52 385.033C1066.54 384.483 1067.41 383.74 1068.12 382.804V385.446H1073.04V371.284C1073.04 369.798 1072.82 368.553 1072.38 367.547C1071.94 366.543 1071.32 365.731 1070.54 365.111C1069.75 364.492 1068.84 364.052 1067.79 363.79C1066.75 363.529 1065.62 363.398 1064.41 363.398C1063.2 363.398 1062.05 363.536 1060.98 363.811C1059.91 364.086 1058.96 364.513 1058.13 365.091C1057.31 365.669 1056.63 366.406 1056.11 367.3C1055.59 368.195 1055.27 369.276 1055.16 370.541H1059.99C1060.13 369.454 1060.52 368.61 1061.17 368.012C1061.81 367.413 1062.8 367.114 1064.12 367.114C1065.61 367.114 1066.63 367.475 1067.19 368.196C1067.76 368.917 1068.04 370.011 1068.04 371.482V372.605H1065.36C1063.81 372.605 1062.37 372.729 1061.02 372.977C1059.67 373.225 1058.5 373.617 1057.51 374.154C1056.52 374.69 1055.74 375.392 1055.16 376.259C1054.58 377.126 1054.29 378.194 1054.29 379.459C1054.29 380.589 1054.48 381.559 1054.87 382.37C1055.25 383.183 1055.77 383.843 1056.42 384.352C1057.06 384.862 1057.83 385.24 1058.71 385.487C1059.59 385.735 1060.53 385.859 1061.52 385.859C1063.17 385.859 1064.5 385.583 1065.52 385.033Z" fill="white"/>
<path d="M1031.42 385.446H1036.41V372.7C1036.41 370.989 1036.91 369.699 1037.9 368.83C1038.89 367.962 1040.09 367.527 1041.49 367.527C1042.98 367.527 1044.07 367.907 1044.75 368.665C1045.44 369.423 1045.79 370.629 1045.79 372.285V385.446H1050.78V371.862C1050.78 370.376 1050.6 369.096 1050.25 368.022C1049.89 366.949 1049.38 366.076 1048.72 365.4C1048.06 364.726 1047.27 364.223 1046.36 363.893C1045.46 363.563 1044.47 363.398 1043.39 363.398C1041.6 363.398 1040.12 363.784 1038.95 364.554C1037.78 365.325 1036.94 366.233 1036.41 367.279V353.86H1031.42V385.446Z" fill="white"/>
<path d="M1021.78 385.24C1022.97 384.827 1024 384.243 1024.85 383.485C1025.7 382.728 1026.39 381.833 1026.9 380.801C1027.41 379.769 1027.7 378.633 1027.78 377.395H1023.2C1023.12 378.166 1022.93 378.84 1022.62 379.418C1022.32 379.996 1021.93 380.478 1021.47 380.863C1021 381.249 1020.47 381.538 1019.88 381.73C1019.28 381.923 1018.66 382.019 1018 382.019C1016.15 382.019 1014.7 381.415 1013.62 380.202C1012.55 378.992 1012.01 377.203 1012.01 374.835V374.505C1012.01 373.404 1012.16 372.414 1012.45 371.532C1012.73 370.651 1013.14 369.901 1013.66 369.281C1014.19 368.662 1014.8 368.195 1015.52 367.878C1016.24 367.562 1017.02 367.403 1017.87 367.403C1019.2 367.403 1020.3 367.72 1021.18 368.352C1022.06 368.986 1022.61 370.032 1022.83 371.49H1027.66C1027.52 370.004 1027.15 368.745 1026.55 367.712C1025.94 366.68 1025.19 365.849 1024.3 365.214C1023.4 364.582 1022.39 364.12 1021.26 363.831C1020.13 363.542 1018.97 363.398 1017.79 363.398C1016.28 363.398 1014.86 363.66 1013.54 364.182C1012.22 364.706 1011.06 365.456 1010.07 366.432C1009.08 367.41 1008.3 368.587 1007.74 369.963C1007.17 371.34 1006.89 372.881 1006.89 374.587V374.917C1006.89 376.652 1007.17 378.194 1007.72 379.542C1008.27 380.891 1009.03 382.034 1010.01 382.969C1010.99 383.905 1012.14 384.62 1013.48 385.116C1014.81 385.611 1016.25 385.859 1017.79 385.859C1019.25 385.859 1020.58 385.653 1021.78 385.24Z" fill="white"/>
<path d="M979.641 372.399C979.889 370.721 980.493 369.405 981.458 368.456C982.421 367.506 983.659 367.031 985.174 367.031C986.743 367.031 987.974 367.459 988.869 368.311C989.763 369.165 990.279 370.527 990.417 372.399H979.641ZM992.152 384.053C993.886 382.848 994.931 381.096 995.29 378.799H990.459C990.266 379.857 989.77 380.68 988.972 381.266C988.173 381.851 987.017 382.143 985.504 382.143C983.631 382.143 982.193 381.59 981.189 380.481C980.184 379.372 979.641 377.78 979.558 375.702H995.372V374.261C995.372 372.341 995.089 370.694 994.526 369.323C993.961 367.951 993.21 366.826 992.275 365.949C991.339 365.071 990.258 364.427 989.034 364.016C987.809 363.604 986.521 363.398 985.174 363.398C983.631 363.398 982.207 363.666 980.9 364.203C979.592 364.74 978.457 365.498 977.494 366.474C976.529 367.451 975.78 368.621 975.244 369.983C974.707 371.346 974.438 372.868 974.438 374.546V374.876C974.438 376.584 974.707 378.111 975.244 379.459C975.78 380.808 976.537 381.957 977.515 382.907C978.491 383.857 979.647 384.586 980.983 385.095C982.317 385.604 983.783 385.859 985.38 385.859C988.16 385.859 990.417 385.257 992.152 384.053Z" fill="white"/>
<path d="M956.87 380.198C955.782 379.039 955.239 377.244 955.239 374.814V374.484C955.239 372.055 955.796 370.252 956.911 369.079C958.026 367.907 959.451 367.32 961.185 367.32C962.01 367.32 962.767 367.466 963.456 367.755C964.143 368.046 964.749 368.492 965.272 369.1C965.794 369.708 966.201 370.461 966.49 371.358C966.779 372.256 966.924 373.297 966.924 374.484V374.814C966.924 377.16 966.434 378.934 965.458 380.135C964.48 381.336 963.069 381.937 961.226 381.937C959.409 381.937 957.957 381.357 956.87 380.198ZM966.325 385.095C967.495 384.586 968.499 383.851 969.339 382.886C970.178 381.923 970.839 380.754 971.321 379.377C971.802 378.001 972.044 376.445 972.044 374.711V374.381C972.044 372.646 971.796 371.098 971.301 369.736C970.805 368.373 970.13 367.224 969.277 366.288C968.424 365.353 967.412 364.636 966.243 364.141C965.072 363.645 963.812 363.398 962.465 363.398C961.665 363.398 960.909 363.508 960.194 363.728C959.477 363.949 958.811 364.238 958.191 364.595C957.572 364.953 957.028 365.366 956.56 365.834C956.091 366.303 955.706 366.798 955.404 367.32V353.86H950.408V385.446H955.404V381.978C955.982 383.079 956.87 384.001 958.067 384.744C959.265 385.487 960.73 385.859 962.465 385.859C963.868 385.859 965.154 385.604 966.325 385.095Z" fill="white"/>
<path d="M921.712 372.399C921.96 370.721 922.564 369.405 923.529 368.456C924.492 367.506 925.73 367.031 927.245 367.031C928.814 367.031 930.045 367.459 930.94 368.311C931.834 369.165 932.35 370.527 932.489 372.399H921.712ZM934.223 384.053C935.957 382.848 937.002 381.096 937.361 378.799H932.53C932.337 379.857 931.841 380.68 931.044 381.266C930.244 381.851 929.088 382.143 927.575 382.143C925.702 382.143 924.265 381.59 923.26 380.481C922.255 379.372 921.712 377.78 921.63 375.702H937.443V374.261C937.443 372.341 937.16 370.694 936.597 369.323C936.032 367.951 935.282 366.826 934.347 365.949C933.41 365.071 932.329 364.427 931.105 364.016C929.88 363.604 928.593 363.398 927.245 363.398C925.702 363.398 924.278 363.666 922.971 364.203C921.663 364.74 920.528 365.498 919.565 366.474C918.601 367.451 917.852 368.621 917.315 369.983C916.778 371.346 916.51 372.868 916.51 374.546V374.876C916.51 376.584 916.778 378.111 917.315 379.459C917.852 380.808 918.608 381.957 919.586 382.907C920.562 383.857 921.718 384.586 923.054 385.095C924.389 385.604 925.854 385.859 927.451 385.859C930.231 385.859 932.489 385.257 934.223 384.053Z" fill="white"/>
<path d="M902.636 385.446H907.632V374.215C907.632 373.059 907.79 372.104 908.107 371.346C908.423 370.589 908.884 369.977 909.49 369.508C910.095 369.041 910.832 368.703 911.699 368.497C912.567 368.29 913.55 368.187 914.652 368.187V363.521C912.835 363.55 911.382 363.942 910.296 364.698C909.207 365.456 908.32 366.522 907.632 367.898V363.852H902.636V385.446Z" fill="white"/>
<path d="M883.107 372.399C883.354 370.721 883.959 369.405 884.923 368.456C885.886 367.506 887.125 367.031 888.639 367.031C890.208 367.031 891.44 367.459 892.335 368.311C893.228 369.165 893.745 370.527 893.883 372.399H883.107ZM895.617 384.053C897.351 382.848 898.397 381.096 898.755 378.799H893.924C893.731 379.857 893.236 380.68 892.438 381.266C891.639 381.851 890.483 382.143 888.97 382.143C887.097 382.143 885.659 381.59 884.655 380.481C883.649 379.372 883.107 377.78 883.024 375.702H898.838V374.261C898.838 372.341 898.555 370.694 897.991 369.323C897.427 367.951 896.676 366.826 895.741 365.949C894.805 365.071 893.724 364.427 892.5 364.016C891.275 363.604 889.987 363.398 888.639 363.398C887.097 363.398 885.673 363.666 884.366 364.203C883.058 364.74 881.923 365.498 880.96 366.474C879.995 367.451 879.246 368.621 878.709 369.983C878.173 371.346 877.904 372.868 877.904 374.546V374.876C877.904 376.584 878.173 378.111 878.709 379.459C879.246 380.808 880.003 381.957 880.98 382.907C881.956 383.857 883.113 384.586 884.449 385.095C885.783 385.604 887.249 385.859 888.846 385.859C891.626 385.859 893.883 385.257 895.617 384.053Z" fill="white"/>
<path d="M854.906 385.446H859.902V372.7C859.902 370.989 860.398 369.699 861.389 368.83C862.38 367.962 863.577 367.527 864.981 367.527C866.467 367.527 867.554 367.907 868.243 368.665C868.93 369.423 869.275 370.629 869.275 372.285V385.446H874.271V371.862C874.271 370.376 874.091 369.096 873.734 368.022C873.376 366.949 872.867 366.076 872.206 365.4C871.546 364.726 870.761 364.223 869.853 363.893C868.945 363.563 867.954 363.398 866.88 363.398C865.09 363.398 863.611 363.784 862.441 364.554C861.271 365.325 860.424 366.233 859.902 367.279V353.86H854.906V385.446Z" fill="white"/>
<path d="M849.662 385.651C850.212 385.539 850.68 385.414 851.066 385.275V381.276C850.406 381.552 849.593 381.689 848.63 381.689C847.831 381.689 847.219 381.469 846.793 381.028C846.365 380.589 846.153 379.887 846.153 378.922V367.568H850.901V363.852H846.153V359.104H841.157V363.852H838.267V367.568H841.157V379.403C841.157 381.472 841.707 383.059 842.808 384.162C843.908 385.266 845.533 385.818 847.681 385.818C848.45 385.818 849.111 385.762 849.662 385.651Z" fill="white"/>
<path d="M825.921 385.651C826.471 385.539 826.939 385.414 827.325 385.275V381.276C826.664 381.552 825.852 381.689 824.889 381.689C824.09 381.689 823.478 381.469 823.051 381.028C822.624 380.589 822.412 379.887 822.412 378.922V367.568H827.16V363.852H822.412V359.104H817.416V363.852H814.525V367.568H817.416V379.403C817.416 381.472 817.966 383.059 819.067 384.162C820.167 385.266 821.792 385.818 823.939 385.818C824.709 385.818 825.37 385.762 825.921 385.651Z" fill="white"/>
<path d="M797.06 372.399C797.308 370.721 797.912 369.405 798.877 368.456C799.84 367.506 801.078 367.031 802.593 367.031C804.162 367.031 805.393 367.459 806.288 368.311C807.182 369.165 807.698 370.527 807.836 372.399H797.06ZM809.571 384.053C811.305 382.848 812.35 381.096 812.709 378.799H807.878C807.685 379.857 807.189 380.68 806.391 381.266C805.592 381.851 804.436 382.143 802.923 382.143C801.05 382.143 799.613 381.59 798.608 380.481C797.603 379.372 797.06 377.78 796.977 375.702H812.791V374.261C812.791 372.341 812.508 370.694 811.945 369.323C811.38 367.951 810.629 366.826 809.694 365.949C808.758 365.071 807.677 364.427 806.453 364.016C805.228 363.604 803.941 363.398 802.593 363.398C801.05 363.398 799.626 363.666 798.319 364.203C797.011 364.74 795.876 365.498 794.913 366.474C793.949 367.451 793.199 368.621 792.663 369.983C792.126 371.346 791.858 372.868 791.858 374.546V374.876C791.858 376.584 792.126 378.111 792.663 379.459C793.199 380.808 793.956 381.957 794.934 382.907C795.91 383.857 797.066 384.586 798.402 385.095C799.736 385.604 801.202 385.859 802.799 385.859C805.579 385.859 807.836 385.257 809.571 384.053Z" fill="white"/>
<path d="M772.039 385.446H790.123V381.111H777.53V355.924H772.039V385.446Z" fill="white"/>
</g>
<mask id="mask8_1_795" style="mask-type:alpha" maskUnits="userSpaceOnUse" x="528" y="196" width="868" height="213">
<path d="M1395.48 196.585H528.416V408.927H1395.48V196.585Z" fill="#161616"/>
</mask>
<g mask="url(#mask8_1_795)">
<mask id="mask9_1_795" style="mask-type:luminance" maskUnits="userSpaceOnUse" x="1181" y="355" width="39" height="39">
<path d="M1181.83 355.826H1219.9V393.891H1181.83V355.826Z" fill="white"/>
</mask>
<g mask="url(#mask9_1_795)">
<path d="M1219.9 355.826V393.891H1181.83V355.826H1219.9Z" fill="#A100FF"/>
<path d="M1194.52 382.154L1196.74 384.375L1206.26 374.859L1196.74 365.342L1194.52 367.563L1201.81 374.859L1194.52 382.154Z" fill="white"/>
</g>
</g>
</g>
</g>
<defs>
<clipPath id="clip0_1_795">
<rect width="1917" height="426" fill="white" transform="translate(0.5 0.0427246)"/>
</clipPath>
</defs>
</svg>
