<svg width="803" height="883" viewBox="0 0 803 883" fill="none" xmlns="http://www.w3.org/2000/svg">
<g clip-path="url(#clip0_1_1176)">
<mask id="mask0_1_1176" style="mask-type:luminance" maskUnits="userSpaceOnUse" x="0" y="0" width="803" height="883">
<path d="M802.876 0.792969H0.563934V882.793H802.876V0.792969Z" fill="white"/>
</mask>
<g mask="url(#mask0_1_1176)">
<mask id="mask1_1_1176" style="mask-type:luminance" maskUnits="userSpaceOnUse" x="-510" y="-78" width="1827" height="1028">
<path d="M-509.257 -77.084H1316.32V949.803H-509.257V-77.084Z" fill="white"/>
</mask>
<g mask="url(#mask1_1_1176)">
<path d="M1316.32 -77.084H-509.257V949.803H1316.32V-77.084Z" fill="black"/>
<mask id="mask2_1_1176" style="mask-type:luminance" maskUnits="userSpaceOnUse" x="762" y="-127" width="61" height="1177">
<path d="M762.875 -126.553V1049.61H822.123V-126.553H762.875Z" fill="white"/>
</mask>
<g mask="url(#mask2_1_1176)">
<path d="M815.008 84.3711V-17.3706H788.411V50.3868H750.839V-1.11725H725.931V50.3868H690.68V-13.9933H664.084V84.3711H815.008Z" fill="white"/>
<path d="M815.008 414.077V383.681H707.567L815.008 320.779V286.583H664.084V316.979H763.504L664.084 374.394V414.077H815.008Z" fill="white"/>
<path d="M813.741 799.086C811.35 791.207 807.762 784.31 802.976 778.4C798.332 772.489 792.458 767.708 785.351 764.046C778.247 760.389 770.047 758.067 760.759 757.08V790.642C770.469 792.051 777.719 795.814 782.501 801.935C787.287 808.057 789.678 815.834 789.678 825.26C789.678 837.787 785.387 847.46 776.802 854.284C768.221 861.111 756.047 864.521 740.285 864.521H738.596C722.838 864.521 710.595 861.006 701.868 853.967C693.144 846.932 688.78 837.434 688.78 825.471C688.78 815.903 691.139 808.552 695.852 803.413C700.569 798.278 707.498 795.075 716.643 793.809V758.769C707.356 759.613 699.266 761.903 692.369 765.629C685.476 769.36 679.777 774.109 675.271 779.877C670.769 785.787 667.392 792.648 665.139 800.458C662.89 808.268 661.762 816.679 661.762 825.682C661.762 836.378 663.629 846.299 667.356 855.445C671.086 864.594 676.327 872.473 683.081 879.086C689.836 885.84 697.963 891.118 707.461 894.917C716.96 898.716 727.408 900.616 738.807 900.616H740.496C752.178 900.616 762.732 899.001 772.158 895.761C781.588 892.526 789.609 887.671 796.221 881.197C802.976 874.864 808.184 866.985 811.841 857.555C815.499 848.13 817.33 837.223 817.33 824.838C817.33 815.55 816.132 806.969 813.741 799.086Z" fill="white"/>
</g>
<mask id="mask3_1_1176" style="mask-type:luminance" maskUnits="userSpaceOnUse" x="686" y="-122" width="62" height="1157">
<path d="M686.562 -121.797V1034.4H747.014V-121.797H686.562Z" fill="white"/>
</mask>
<g mask="url(#mask3_1_1176)">
<path d="M739.709 84.3701V-17.3716H713.113V50.3859H675.54V-1.11823H650.633V50.3859H615.382V-13.9942H588.785V84.3701H739.709Z" fill="white"/>
<path d="M737.176 152.443C733.941 143.651 729.366 136.226 723.456 130.174C717.688 124.126 710.685 119.514 702.453 116.348C694.221 113.182 685.039 111.599 674.907 111.599H658.865V179.356H683.772V145.372C688.107 145.514 692.196 146.289 696.042 147.694C699.888 149.103 703.206 151.282 705.999 154.237C708.935 157.193 711.243 160.923 712.919 165.425C714.597 169.931 715.435 175.346 715.435 181.678C715.435 189.139 714.208 195.504 711.751 200.781C709.294 206.058 705.818 210.385 701.322 213.763C696.968 217.14 691.739 219.641 685.63 221.256C679.521 222.876 672.813 223.684 665.511 223.684H663.825C648.38 223.684 636.127 220.063 627.07 212.813C618.013 205.567 613.482 195.33 613.482 182.1C613.482 172.955 615.56 165.604 619.709 160.042C623.862 154.485 630.369 150.933 639.234 149.383V115.398C629.946 116.243 621.962 118.67 615.276 122.681C608.595 126.691 603.07 131.725 598.706 137.773C594.485 143.825 591.392 150.686 589.419 158.354C587.45 166.026 586.464 174.079 586.464 182.522C586.464 193.641 588.363 203.915 592.163 213.341C595.962 222.77 601.239 230.86 607.994 237.615C614.749 244.512 622.843 249.858 632.268 253.657C641.698 257.457 652.11 259.356 663.509 259.356H665.197C676.458 259.356 686.764 257.668 696.121 254.29C705.482 250.913 713.535 245.92 720.29 239.304C727.186 232.833 732.532 224.844 736.332 215.346C740.131 205.847 742.031 194.907 742.031 182.522C742.031 171.266 740.411 161.24 737.176 152.443Z" fill="white"/>
<path d="M616.648 510.54L681.873 490.698V530.593L616.648 510.54ZM739.709 580.408V548.324L706.147 537.981V483.31L739.709 472.967V437.294L588.785 486.265V530.804L739.709 580.408Z" fill="white"/>
<path d="M739.709 732.385V698.189H677.44V637.609H739.709V603.413H588.785V637.609H650.421V698.189H588.785V732.385H739.709Z" fill="white"/>
</g>
<mask id="mask4_1_1176" style="mask-type:luminance" maskUnits="userSpaceOnUse" x="66" y="-95" width="55" height="1115">
<path d="M66.4448 -94.224V1019.19H120.642V-94.224H66.4448Z" fill="white"/>
</mask>
<g mask="url(#mask4_1_1176)">
<path d="M222.218 152.444C218.983 143.652 214.408 136.227 208.498 130.175C202.729 124.127 195.727 119.515 187.495 116.349C179.263 113.183 170.081 111.6 159.949 111.6H143.906V179.357H168.814V145.373C173.148 145.515 177.238 146.29 181.084 147.695C184.93 149.103 188.248 151.283 191.041 154.238C193.977 157.194 196.284 160.924 197.96 165.426C199.639 169.932 200.477 175.347 200.477 181.679C200.477 189.14 199.249 195.505 196.792 200.782C194.335 206.059 190.86 210.386 186.364 213.764C182.01 217.141 176.78 219.642 170.672 221.257C164.563 222.877 157.855 223.685 150.553 223.685H148.867C133.421 223.685 121.169 220.064 112.112 212.814C103.055 205.568 98.5238 195.331 98.5238 182.101C98.5238 172.956 100.602 165.605 104.751 160.043C108.903 154.486 115.41 150.934 124.276 149.384V115.399C114.988 116.244 107.004 118.671 100.318 122.682C93.6365 126.692 88.1118 131.726 83.748 137.774C79.5264 143.826 76.4333 150.687 74.4604 158.355C72.4917 166.027 71.5052 174.08 71.5052 182.523C71.5052 193.642 73.405 203.916 77.2044 213.341C81.0039 222.771 86.281 230.861 93.0356 237.616C99.7903 244.513 107.885 249.859 117.31 253.658C126.74 257.458 137.152 259.357 148.55 259.357H150.239C161.499 259.357 171.806 257.669 181.162 254.291C190.523 250.914 198.577 245.921 205.331 239.305C212.228 232.834 217.574 224.845 221.374 215.347C225.173 205.848 227.073 194.908 227.073 182.523C227.073 171.267 225.453 161.241 222.218 152.444Z" fill="white"/>
<path d="M224.751 414.078V383.682H117.31L224.751 320.78V286.584H73.8272V316.98H173.247L73.8272 374.395V414.078H224.751Z" fill="white"/>
<path d="M101.69 510.541L166.914 490.699V530.594L101.69 510.541ZM224.751 580.409V548.325L191.189 537.982V483.311L224.751 472.968V437.295L73.8272 486.266V530.805L224.751 580.409Z" fill="white"/>
<path d="M223.484 799.087C221.094 791.208 217.505 784.311 212.719 778.401C208.075 772.49 202.202 767.709 195.094 764.047C187.99 760.39 179.79 758.068 170.503 757.081V790.643C180.213 792.052 187.463 795.815 192.244 801.936C197.03 808.058 199.421 815.835 199.421 825.261C199.421 837.788 195.131 847.461 186.545 854.285C177.964 861.112 165.79 864.522 150.028 864.522H148.339C132.581 864.522 120.338 861.007 111.611 853.968C102.888 846.933 98.5238 837.435 98.5238 825.472C98.5238 815.904 100.882 808.553 105.595 803.414C110.312 798.279 117.241 795.076 126.387 793.81V758.77C117.099 759.614 109.009 761.904 102.112 765.63C95.2196 769.361 89.5204 774.11 85.0145 779.878C80.5128 785.788 77.1355 792.649 74.8825 800.459C72.6338 808.269 71.5052 816.68 71.5052 825.683C71.5052 836.379 73.3726 846.3 77.0989 855.446C80.8294 864.595 86.0699 872.474 92.8245 879.087C99.5792 885.841 107.706 891.118 117.205 894.918C126.703 898.717 137.152 900.617 148.55 900.617H150.239C161.922 900.617 172.476 899.002 181.901 895.762C191.331 892.527 199.352 887.672 205.965 881.198C212.719 874.865 217.927 866.986 221.585 857.556C225.242 848.131 227.073 837.224 227.073 824.839C227.073 815.551 225.875 806.97 223.484 799.087Z" fill="white"/>
</g>
<mask id="mask5_1_1176" style="mask-type:luminance" maskUnits="userSpaceOnUse" x="-18" y="-145" width="59" height="1266">
<path d="M-17.6461 -144.161V1120.43H40.5929V-144.161H-17.6461Z" fill="white"/>
</mask>
<g mask="url(#mask5_1_1176)">
<path d="M140.811 414.078V383.682H33.3697L140.811 320.78V286.584H-10.1132V316.98H89.3065L-10.1132 374.395V414.078H140.811Z" fill="white"/>
<path d="M140.811 732.386V698.19H78.5414V637.61H140.811V603.414H-10.1132V637.61H51.5228V698.19H-10.1132V732.386H140.811Z" fill="white"/>
</g>
<path d="M448.077 -913.165H633.829V1788.69H448.077V-913.165Z" fill="black"/>
<mask id="mask6_1_1176" style="mask-type:luminance" maskUnits="userSpaceOnUse" x="611" y="-123" width="62" height="1155">
<path d="M611.894 -122.759V1031.54H672.984V-122.759H611.894Z" fill="white"/>
</mask>
<g mask="url(#mask6_1_1176)">
<path d="M665.741 84.3711V-17.3706H639.145V50.3868H601.572V-1.11725H576.664V50.3868H541.414V-13.9933H514.817V84.3711H665.741Z" fill="white"/>
<path d="M665.741 414.077V383.681H558.3L665.741 320.779V286.583H514.817V316.979H614.237L514.817 374.394V414.077H665.741Z" fill="white"/>
<path d="M542.68 510.54L607.905 490.698V530.593L542.68 510.54ZM665.741 580.408V548.324L632.179 537.981V483.31L665.741 472.967V437.294L514.817 486.265V530.804L665.741 580.408Z" fill="white"/>
<path d="M665.741 732.385V698.189H603.472V637.609H665.741V603.413H514.817V637.609H576.453V698.189H514.817V732.385H665.741Z" fill="white"/>
<path d="M664.475 799.086C662.084 791.207 658.495 784.31 653.709 778.4C649.066 772.489 643.192 767.708 636.084 764.046C628.98 760.389 620.781 758.067 611.493 757.08V790.642C621.203 792.051 628.453 795.814 633.234 801.935C638.02 808.057 640.411 815.834 640.411 825.26C640.411 837.787 636.121 847.46 627.535 854.284C618.954 861.111 606.78 864.521 591.018 864.521H589.329C573.571 864.521 561.328 861.006 552.601 853.967C543.878 846.932 539.514 837.434 539.514 825.471C539.514 815.903 541.872 808.552 546.585 803.413C551.302 798.278 558.231 795.075 567.377 793.809V758.769C558.089 759.613 549.999 761.903 543.102 765.629C536.21 769.36 530.51 774.109 526.005 779.877C521.503 785.787 518.126 792.648 515.873 800.458C513.624 808.268 512.495 816.679 512.495 825.682C512.495 836.378 514.363 846.299 518.089 855.445C521.819 864.594 527.06 872.473 533.815 879.086C540.569 885.84 548.696 891.118 558.195 894.917C567.693 898.716 578.142 900.616 589.54 900.616H591.229C602.912 900.616 613.466 899.001 622.891 895.761C632.321 892.526 640.342 887.671 646.955 881.197C653.709 874.864 658.917 866.985 662.575 857.555C666.232 848.13 668.063 837.223 668.063 824.838C668.063 815.55 666.865 806.969 664.475 799.086Z" fill="white"/>
</g>
<path d="M404.696 -913.165H590.448V1788.69H404.696V-913.165Z" fill="black"/>
<mask id="mask7_1_1176" style="mask-type:luminance" maskUnits="userSpaceOnUse" x="498" y="-202" width="97" height="1284">
<path d="M498.365 -201.914V1081.69H594.399V-201.914H498.365Z" fill="white"/>
</mask>
<g mask="url(#mask7_1_1176)">
<path d="M586.78 84.3711V-17.3706H560.184V50.3868H522.611V-1.11725H497.703V50.3868H462.452V-13.9933H435.856V84.3711H586.78Z" fill="white"/>
<path d="M584.247 152.443C581.012 143.651 576.437 136.226 570.527 130.174C564.758 124.126 557.756 119.514 549.524 116.348C541.292 113.182 532.11 111.599 521.978 111.599H505.935V179.356H530.843V145.372C535.177 145.514 539.267 146.289 543.113 147.694C546.959 149.103 550.275 151.282 553.069 154.237C556.004 157.193 558.313 160.923 559.989 165.425C561.668 169.931 562.506 175.346 562.506 181.678C562.506 189.139 561.278 195.504 558.821 200.781C556.364 206.058 552.889 210.385 548.393 213.763C544.039 217.14 538.808 219.641 532.699 221.256C526.591 222.876 519.882 223.684 512.58 223.684H510.896C495.45 223.684 483.198 220.063 474.141 212.813C465.084 205.567 460.553 195.33 460.553 182.1C460.553 172.955 462.631 165.604 466.78 160.042C470.932 154.485 477.439 150.933 486.305 149.383V115.398C477.017 116.243 469.033 118.67 462.347 122.681C455.665 126.691 450.141 131.725 445.777 137.773C441.555 143.825 438.462 150.686 436.489 158.354C434.521 166.026 433.534 174.079 433.534 182.522C433.534 193.641 435.434 203.915 439.233 213.341C443.033 222.77 448.31 230.86 455.065 237.615C461.819 244.512 469.914 249.858 479.339 253.657C488.769 257.457 499.181 259.356 510.579 259.356H512.268C523.528 259.356 533.835 257.668 543.191 254.29C552.552 250.913 560.606 245.92 567.36 239.304C574.257 232.833 579.603 224.844 583.403 215.346C587.202 205.847 589.102 194.907 589.102 182.522C589.102 171.266 587.482 161.24 584.247 152.443Z" fill="white"/>
<path d="M586.78 414.077V383.681H479.339L586.78 320.779V286.583H435.856V316.979H535.276L435.856 374.394V414.077H586.78Z" fill="white"/>
<path d="M586.78 732.385V698.189H524.511V637.609H586.78V603.413H435.856V637.609H497.492V698.189H435.856V732.385H586.78Z" fill="white"/>
<path d="M585.513 799.086C583.123 791.207 579.534 784.31 574.748 778.4C570.104 772.489 564.231 767.708 557.123 764.046C550.019 760.389 541.819 758.067 532.532 757.08V790.642C542.242 792.051 549.492 795.814 554.273 801.935C559.059 808.057 561.45 815.834 561.45 825.26C561.45 837.787 557.16 847.46 548.574 854.284C539.993 861.111 527.819 864.521 512.057 864.521H510.368C494.61 864.521 482.367 861.006 473.64 853.967C464.917 846.932 460.553 837.434 460.553 825.471C460.553 815.903 462.911 808.552 467.624 803.413C472.341 798.278 479.27 795.075 488.416 793.809V758.769C479.128 759.613 471.038 761.903 464.141 765.629C457.249 769.36 451.549 774.109 447.043 779.877C442.542 785.787 439.164 792.648 436.912 800.458C434.663 808.268 433.534 816.679 433.534 825.682C433.534 836.378 435.402 846.299 439.128 855.445C442.858 864.594 448.099 872.473 454.854 879.086C461.608 885.84 469.735 891.118 479.234 894.917C488.732 898.716 499.181 900.616 510.579 900.616H512.268C523.951 900.616 534.505 899.001 543.93 895.761C553.36 892.526 561.381 887.671 567.994 881.197C574.748 874.864 579.956 866.985 583.614 857.555C587.271 848.13 589.102 837.223 589.102 824.838C589.102 815.55 587.904 806.969 585.513 799.086Z" fill="white"/>
</g>
<path d="M119.853 -913.165H305.605V1788.69H119.853V-913.165Z" fill="black"/>
<mask id="mask8_1_1176" style="mask-type:luminance" maskUnits="userSpaceOnUse" x="132" y="-218" width="97" height="1474">
<path d="M132.308 -217.832V1255.94H228.578V-217.832H132.308Z" fill="white"/>
</mask>
<g mask="url(#mask8_1_1176)">
<path d="M291.504 84.3711V-17.3706H264.907V50.3868H227.334V-1.11725H202.427V50.3868H167.176V-13.9933H140.58V84.3711H291.504Z" fill="white"/>
<path d="M288.971 152.443C285.735 143.651 281.16 136.226 275.25 130.174C269.482 124.126 262.48 119.514 254.247 116.348C246.015 113.182 236.833 111.599 226.701 111.599H210.659V179.356H235.567V145.372C239.901 145.514 243.99 146.289 247.836 147.694C251.682 149.103 255 151.282 257.794 154.237C260.729 157.193 263.037 160.923 264.713 165.425C266.392 169.931 267.229 175.346 267.229 181.678C267.229 189.139 266.002 195.504 263.545 200.781C261.088 206.058 257.612 210.385 253.116 213.763C248.762 217.14 243.533 219.641 237.424 221.256C231.315 222.876 224.607 223.684 217.305 223.684H215.619C200.174 223.684 187.921 220.063 178.864 212.813C169.808 205.567 165.276 195.33 165.276 182.1C165.276 172.955 167.355 165.604 171.503 160.042C175.656 154.485 182.163 150.933 191.028 149.383V115.398C181.741 116.243 173.756 118.67 167.07 122.681C160.389 126.691 154.864 131.725 150.501 137.773C146.279 143.825 143.186 150.686 141.213 158.354C139.244 166.026 138.258 174.079 138.258 182.522C138.258 193.641 140.157 203.915 143.957 213.341C147.756 222.77 153.034 230.86 159.788 237.615C166.543 244.512 174.637 249.858 184.063 253.657C193.492 257.457 203.904 259.356 215.303 259.356H216.991C228.252 259.356 238.558 257.668 247.915 254.29C257.276 250.913 265.329 245.92 272.084 239.304C278.981 232.833 284.327 224.844 288.126 215.346C291.926 205.847 293.825 194.907 293.825 182.522C293.825 171.266 292.206 161.24 288.971 152.443Z" fill="white"/>
<path d="M291.504 414.077V383.681H184.063L291.504 320.779V286.583H140.58V316.979H239.999L140.58 374.394V414.077H291.504Z" fill="white"/>
<path d="M291.504 732.385V698.189H229.234V637.609H291.504V603.413H140.58V637.609H202.216V698.189H140.58V732.385H291.504Z" fill="white"/>
<path d="M290.237 799.086C287.846 791.207 284.258 784.31 279.472 778.4C274.828 772.489 268.954 767.708 261.846 764.046C254.743 760.389 246.543 758.067 237.255 757.08V790.642C246.965 792.051 254.215 795.814 258.997 801.935C263.783 808.057 266.174 815.834 266.174 825.26C266.174 837.787 261.883 847.46 253.298 854.284C244.716 861.111 232.543 864.521 216.78 864.521H215.092C199.334 864.521 187.091 861.006 178.363 853.967C169.64 846.932 165.276 837.434 165.276 825.471C165.276 815.903 167.635 808.552 172.348 803.413C177.065 798.278 183.994 795.075 193.139 793.809V758.769C183.852 759.613 175.761 761.903 168.865 765.629C161.972 769.36 156.273 774.109 151.767 779.877C147.265 785.787 143.888 792.648 141.635 800.458C139.386 808.268 138.258 816.679 138.258 825.682C138.258 836.378 140.125 846.299 143.851 855.445C147.582 864.594 152.822 872.473 159.577 879.086C166.332 885.84 174.458 891.118 183.957 894.917C193.456 898.716 203.904 900.616 215.303 900.616H216.991C228.674 900.616 239.228 899.001 248.654 895.761C258.084 892.526 266.105 887.671 272.717 881.197C279.472 874.864 284.68 866.985 288.337 857.555C291.995 848.13 293.825 837.223 293.825 824.838C293.825 815.55 292.628 806.969 290.237 799.086Z" fill="white"/>
</g>
<path d="M191.228 -913.165H376.98V1788.69H191.228V-913.165Z" fill="black"/>
<mask id="mask9_1_1176" style="mask-type:luminance" maskUnits="userSpaceOnUse" x="207" y="-197" width="98" height="1362">
<path d="M207.661 -196.913V1164.66H304.645V-196.913H207.661Z" fill="white"/>
</mask>
<g mask="url(#mask9_1_1176)">
<path d="M364.24 152.444C361.005 143.652 356.43 136.227 350.52 130.175C344.752 124.127 337.75 119.515 329.517 116.349C321.285 113.183 312.103 111.6 301.971 111.6H285.929V179.357H310.837V145.373C315.171 145.515 319.26 146.29 323.106 147.695C326.952 149.103 330.27 151.283 333.063 154.238C335.999 157.194 338.307 160.924 339.983 165.426C341.662 169.932 342.499 175.347 342.499 181.679C342.499 189.14 341.272 195.505 338.815 200.782C336.358 206.059 332.882 210.386 328.386 213.764C324.032 217.141 318.803 219.642 312.694 221.257C306.585 222.877 299.877 223.685 292.575 223.685H290.889C275.444 223.685 263.191 220.064 254.134 212.814C245.077 205.568 240.546 195.331 240.546 182.101C240.546 172.956 242.625 165.605 246.773 160.043C250.926 154.486 257.433 150.934 266.298 149.384V115.399C257.011 116.244 249.026 118.671 242.34 122.682C235.659 126.692 230.134 131.726 225.77 137.774C221.549 143.826 218.456 150.687 216.483 158.355C214.514 166.027 213.528 174.08 213.528 182.523C213.528 193.642 215.427 203.916 219.227 213.341C223.026 222.771 228.303 230.861 235.058 237.616C241.813 244.513 249.907 249.859 259.332 253.658C268.762 257.458 279.174 259.357 290.573 259.357H292.261C303.522 259.357 313.828 257.669 323.185 254.291C332.546 250.914 340.599 245.921 347.354 239.305C354.251 232.834 359.597 224.845 363.396 215.347C367.196 205.848 369.095 194.908 369.095 182.523C369.095 171.267 367.476 161.241 364.24 152.444Z" fill="white"/>
<path d="M366.773 414.078V383.682H259.332L366.773 320.78V286.584H215.85V316.98H315.269L215.85 374.395V414.078H366.773Z" fill="white"/>
<path d="M243.712 510.541L308.937 490.699V530.594L243.712 510.541ZM366.773 580.409V548.325L333.211 537.982V483.311L366.773 472.968V437.295L215.85 486.266V530.805L366.773 580.409Z" fill="white"/>
<path d="M365.507 799.087C363.116 791.208 359.528 784.311 354.742 778.401C350.098 772.49 344.224 767.709 337.116 764.047C330.013 760.39 321.813 758.068 312.525 757.081V790.643C322.235 792.052 329.485 795.815 334.267 801.936C339.053 808.058 341.443 815.835 341.443 825.261C341.443 837.788 337.153 847.461 328.567 854.285C319.986 861.112 307.812 864.522 292.05 864.522H290.362C274.604 864.522 262.361 861.007 253.633 853.968C244.91 846.933 240.546 837.435 240.546 825.472C240.546 815.904 242.905 808.553 247.617 803.414C252.334 798.279 259.263 795.076 268.409 793.81V758.77C259.121 759.614 251.031 761.904 244.135 765.63C237.242 769.361 231.543 774.11 227.037 779.878C222.535 785.788 219.158 792.649 216.905 800.459C214.656 808.269 213.528 816.68 213.528 825.683C213.528 836.379 215.395 846.3 219.121 855.446C222.852 864.595 228.092 872.474 234.847 879.087C241.602 885.841 249.728 891.118 259.227 894.918C268.726 898.717 279.174 900.617 290.573 900.617H292.261C303.944 900.617 314.498 899.002 323.924 895.762C333.353 892.527 341.375 887.672 347.987 881.198C354.742 874.865 359.95 866.986 363.607 857.556C367.264 848.131 369.095 837.224 369.095 824.839C369.095 815.551 367.898 806.97 365.507 799.087Z" fill="white"/>
</g>
<path d="M307.84 -913.165H493.593V1788.69H307.84V-913.165Z" fill="black"/>
<mask id="mask10_1_1176" style="mask-type:luminance" maskUnits="userSpaceOnUse" x="321" y="-218" width="161" height="1339">
<path d="M321.76 -217.832V1120.93H481.499V-217.832H321.76Z" fill="white"/>
</mask>
<g mask="url(#mask10_1_1176)">
<path d="M478.86 84.3711V-17.3706H452.264V50.3868H414.691V-1.11725H389.783V50.3868H354.533V-13.9933H327.936V84.3711H478.86Z" fill="white"/>
<path d="M476.327 152.443C473.092 143.651 468.517 136.226 462.607 130.174C456.838 124.126 449.836 119.514 441.604 116.348C433.372 113.182 424.19 111.599 414.058 111.599H398.015V179.356H422.923V145.372C427.257 145.514 431.347 146.289 435.193 147.694C439.039 149.103 442.357 151.282 445.15 154.237C448.086 157.193 450.393 160.923 452.069 165.425C453.748 169.931 454.586 175.346 454.586 181.678C454.586 189.139 453.358 195.504 450.901 200.781C448.444 206.058 444.969 210.385 440.473 213.763C436.119 217.14 430.889 219.641 424.781 221.256C418.672 222.876 411.964 223.684 404.662 223.684H402.976C387.53 223.684 375.278 220.063 366.221 212.813C357.164 205.567 352.633 195.33 352.633 182.1C352.633 172.955 354.711 165.604 358.86 160.042C363.012 154.485 369.519 150.933 378.385 149.383V115.398C369.097 116.243 361.113 118.67 354.427 122.681C347.746 126.691 342.221 131.725 337.857 137.773C333.635 143.825 330.542 150.686 328.569 158.354C326.601 166.026 325.614 174.079 325.614 182.522C325.614 193.641 327.514 203.915 331.313 213.341C335.113 222.77 340.39 230.86 347.145 237.615C353.899 244.512 361.994 249.858 371.419 253.657C380.849 257.457 391.261 259.356 402.659 259.356H404.348C415.608 259.356 425.915 257.668 435.272 254.29C444.632 250.913 452.686 245.92 459.44 239.304C466.337 232.833 471.683 224.844 475.483 215.346C479.282 205.847 481.182 194.907 481.182 182.522C481.182 171.266 479.562 161.24 476.327 152.443Z" fill="white"/>
<path d="M478.86 414.077V383.681H371.419L478.86 320.779V286.583H327.936V316.979H427.356L327.936 374.394V414.077H478.86Z" fill="white"/>
<path d="M355.799 510.54L421.023 490.698V530.593L355.799 510.54ZM478.86 580.408V548.324L445.298 537.981V483.31L478.86 472.967V437.294L327.936 486.265V530.804L478.86 580.408Z" fill="white"/>
<path d="M478.86 732.385V698.189H416.591V637.609H478.86V603.413H327.936V637.609H389.572V698.189H327.936V732.385H478.86Z" fill="white"/>
<path d="M477.594 799.086C475.203 791.207 471.614 784.31 466.828 778.4C462.184 772.489 456.311 767.708 449.203 764.046C442.099 760.389 433.899 758.067 424.612 757.08V790.642C434.322 792.051 441.572 795.814 446.353 801.935C451.139 808.057 453.53 815.834 453.53 825.26C453.53 837.787 449.24 847.46 440.654 854.284C432.073 861.111 419.899 864.521 404.137 864.521H402.448C386.69 864.521 374.447 861.006 365.72 853.967C356.997 846.932 352.633 837.434 352.633 825.471C352.633 815.903 354.991 808.552 359.704 803.413C364.421 798.278 371.35 795.075 380.496 793.809V758.769C371.208 759.613 363.118 761.903 356.221 765.629C349.329 769.36 343.629 774.109 339.123 779.877C334.622 785.787 331.245 792.648 328.992 800.458C326.743 808.268 325.614 816.679 325.614 825.682C325.614 836.378 327.482 846.299 331.208 855.445C334.938 864.594 340.179 872.473 346.934 879.086C353.688 885.84 361.815 891.118 371.314 894.917C380.812 898.716 391.261 900.616 402.659 900.616H404.348C416.031 900.616 426.585 899.001 436.01 895.761C445.44 892.526 453.461 887.671 460.074 881.197C466.828 874.864 472.036 866.985 475.694 857.555C479.351 848.13 481.182 837.223 481.182 824.838C481.182 815.55 479.984 806.969 477.594 799.086Z" fill="white"/>
</g>
</g>
</g>
</g>
<defs>
<clipPath id="clip0_1_1176">
<rect width="802.312" height="882" fill="white" transform="translate(0.563934 0.792969)"/>
</clipPath>
</defs>
</svg>
