<svg width="36" height="2" viewBox="0 0 36 2" fill="none" xmlns="http://www.w3.org/2000/svg">
<g clip-path="url(#clip0_1_1013)">
<path d="M12.5386 0.774902C12.2558 0.774902 11.9788 0.776569 11.7078 0.779902C11.4367 0.783236 11.2187 0.787236 11.0537 0.791902L0.588513 1.0919C0.211389 1.10257 0.0228271 1.11774 0.0228271 1.1374C0.0228271 1.15707 0.211389 1.17224 0.588513 1.1829L11.0537 1.5039C11.313 1.51124 11.5546 1.51657 11.7785 1.5199C12.0024 1.52324 12.2558 1.5249 12.5386 1.5249C13.2222 1.5249 13.7643 1.51924 14.165 1.5079C14.3771 1.5019 14.5539 1.49474 14.6953 1.4864C14.8367 1.47807 14.9074 1.4699 14.9074 1.4619C14.9074 1.44257 14.6599 1.42757 14.165 1.4169L5.18471 1.1369L14.165 0.874902C14.5421 0.864236 14.7306 0.851569 14.7306 0.836902C14.7306 0.817569 14.5421 0.802569 14.165 0.791902C13.8586 0.785236 13.5875 0.780736 13.3518 0.778402C13.1161 0.776069 12.845 0.774902 12.5386 0.774902Z" fill="white"/>
</g>
<defs>
<clipPath id="clip0_1_1013">
<rect width="35.3553" height="1" fill="white" transform="matrix(1 0 0 -1 0.0228271 1.6499)"/>
</clipPath>
</defs>
</svg>
