<svg width="36" height="2" viewBox="0 0 36 2" fill="none" xmlns="http://www.w3.org/2000/svg">
<g clip-path="url(#clip0_1_1018)">
<path d="M14.5278 1.1829C14.9285 1.17157 15.1289 1.15624 15.1289 1.1369C15.1289 1.12824 15.0817 1.12024 14.9874 1.1129C14.8932 1.10557 14.74 1.0999 14.5278 1.0959L4.06264 0.795902C3.82694 0.789236 3.58535 0.784069 3.33786 0.780402C3.09037 0.776736 2.78985 0.774902 2.4363 0.774902C1.84704 0.774902 1.36385 0.780569 0.986728 0.791902C0.751025 0.797902 0.568356 0.804902 0.43872 0.812902C0.309084 0.820902 0.244266 0.828902 0.244266 0.836902C0.244266 0.856902 0.432827 0.872236 0.809951 0.882902L9.82556 1.1419L0.66853 1.4209C0.291406 1.43157 0.102844 1.4469 0.102844 1.4669C0.102844 1.4829 0.338547 1.49824 0.809951 1.5129C1.28136 1.5209 1.82347 1.5249 2.4363 1.5249C2.74271 1.5249 3.03734 1.52307 3.32018 1.5194C3.60302 1.51574 3.85051 1.51057 4.06264 1.5039L14.5278 1.1829Z" fill="white"/>
</g>
<defs>
<clipPath id="clip0_1_1018">
<rect width="35.3553" height="1" fill="white" transform="matrix(1 0 0 -1 0.102844 1.6499)"/>
</clipPath>
</defs>
</svg>
